<svg width="234" height="288" viewBox="0 0 234 288" fill="none" xmlns="http://www.w3.org/2000/svg">
<path d="M304.024 149.094C297.083 143.037 287.101 143.175 281.373 144.935C285.125 140.349 293.864 136.589 296.439 136.132C298.4 136.864 304.024 142.617 304.024 149.094ZM326.187 124.011C321.622 99.7027 264.871 115.809 236.292 105.485C235.745 112.57 245.091 123.924 254.03 128.126C238.749 141.327 225.029 167.925 222.262 200.42C219.502 167.925 205.782 141.327 190.501 128.126C199.44 123.924 208.794 112.57 208.239 105.485C179.66 115.809 122.91 99.7027 118.336 124.011C117.374 129.155 119.861 136.994 122.547 139.248C123.028 137.617 125.537 132.285 133.447 131.089C173.429 125.076 206.811 186.415 176.678 211.215C176.219 211.592 176.478 212.288 177.1 212.288H267.439C268.053 212.288 268.312 211.592 267.861 211.215C237.72 186.415 271.102 125.076 311.084 131.089C319.002 132.285 321.503 137.617 321.984 139.248C324.67 136.994 327.157 129.155 326.187 124.011ZM335.911 68.2219C335.193 65.9251 358.636 65.8671 358.636 80.4737C358.636 90.2621 344.613 94.8991 344.613 105.057C344.613 109.788 349.727 113.259 351.296 113.259C347.684 96.9495 362.618 105.485 366.651 108.535C358.636 86.6032 376.678 86.7409 374.902 76.6844C373.666 69.6564 357.985 71.7793 352.309 68.2219C342.238 61.9112 330.324 37.3568 322.473 61.9112C337.11 75.4382 328.592 95.3483 310.011 95.3483C310.011 95.3483 309.907 98.2682 310.078 98.5C332.241 97.4205 339.966 81.2055 335.911 68.2219ZM77.3404 108.535C81.3734 105.485 96.3066 96.9495 92.7028 113.259C94.2642 113.259 99.3776 109.788 99.3776 105.057C99.3776 94.8991 85.3546 90.2621 85.3546 80.4737C85.3546 65.8671 108.798 65.9251 108.08 68.2219C104.032 81.2055 111.758 97.4205 133.921 98.5C134.084 98.2682 133.98 95.3483 133.98 95.3483C115.406 95.3483 106.889 75.4382 121.518 61.9112C113.667 37.3568 101.753 61.9112 91.6816 68.2219C86.0058 71.7793 70.3252 69.6564 69.0894 76.6844C67.3208 86.7409 85.3546 86.6032 77.3404 108.535ZM140.27 149.094C147.219 143.037 157.201 143.175 162.921 144.935C159.184 140.349 150.43 136.589 147.862 136.132C145.901 136.864 140.27 142.617 140.27 149.094ZM232.807 13.1213L221.995 0L211.184 13.1213L221.995 26.9308L232.807 13.1213ZM294.523 52.7966L286.834 43.4719L279.153 52.7966L286.834 61.9112L294.523 52.7966ZM356.883 322.337L347.137 312.07L337.391 322.337L347.137 331.343L356.883 322.337ZM164.845 52.7966L157.157 43.4719L149.476 52.7966L157.157 61.9112L164.845 52.7966ZM142.823 98.5H171.498C195.607 98.5 206.456 83.7703 209.734 70.9968H234.265C237.543 83.7703 248.384 98.5 272.5 98.5H301.175C301.175 98.5 306.193 91.7257 307.451 88.3711C311.979 76.3004 306.193 70.6708 297.749 70.6708L286.834 80.5172L275.919 70.6708C267.476 70.6708 261.689 76.3004 266.218 88.3711C266.795 89.9143 268.179 92.1821 269.489 94.1746C259.314 92.7835 246.327 85.8497 243.478 70.9968C243.478 70.9968 250.996 59.1073 252.883 54.2964C259.661 36.9946 251.003 29.9231 238.342 29.9231L221.995 49.0508L205.649 29.9231C192.988 29.9231 184.33 36.9946 191.115 54.2964C192.995 59.1073 200.521 70.9968 200.521 70.9968C197.664 85.8497 184.677 92.7835 174.502 94.1746C175.82 92.1821 177.196 89.9143 177.773 88.3711C182.295 76.3004 176.523 70.6708 168.072 70.6708L157.157 80.5172L146.242 70.6708C137.791 70.6708 132.019 76.3004 136.54 88.3711C137.798 91.7257 142.823 98.5 142.823 98.5ZM439.289 186.98C433.754 189.769 401.283 204.912 359.687 199.311C360.124 197.333 360.479 195.341 360.782 193.348C388.466 190.052 410.969 185.379 425.31 177.438C441.657 168.381 448.805 146.761 440.554 130.676C440.34 130.271 439.748 130.198 439.452 130.539C434.93 135.719 406.5 166.505 361.707 176.076C361.589 173.75 361.382 171.453 361.071 169.171C382.827 156.89 404.065 142.74 414.181 129.8C429.469 110.237 428.063 85.2846 413.515 72.5618C413.204 72.2865 412.701 72.3662 412.486 72.7067C407.883 80.2636 364.801 149.579 317.5 179.503C317.026 179.807 316.39 180.198 315.753 180.582C314.399 181.401 314.251 183.154 315.406 184.198C320.859 189.117 324.249 195.964 324.249 203.564C324.249 216.78 314.014 227.771 300.487 230.155C293.613 231.48 283.689 231.096 274.158 227.959C273.729 227.822 273.285 228.104 273.285 228.532V270.388C273.285 271.062 274.313 271.228 274.558 270.583C280.352 255.303 297.697 252.057 305.282 252.057C308.013 268.388 312.89 281.915 319.224 289.197C329.54 301.028 346.382 300.862 353.686 292.682C353.937 292.399 353.863 291.957 353.523 291.769C349.231 289.313 324.678 274.308 319.764 249.717C321.703 249.05 323.597 248.297 325.41 247.406C333.336 260.462 344.872 272.09 354.159 276.532C369.759 283.98 384.041 280.357 390.375 269.453C390.604 269.069 390.323 268.591 389.857 268.548C380.207 267.78 350.593 259.331 337.983 238.748C339.426 237.429 340.839 236.052 342.157 234.589C355.351 244.587 374.006 253.427 387.363 255.231C402.992 257.346 420.7 252.383 421.129 234.292C421.137 233.929 420.811 233.632 420.426 233.654C414.869 233.987 378.084 235.581 351.873 220.605C352.783 218.888 353.627 217.135 354.418 215.345C354.418 215.345 394.023 224.663 412.79 221.576C431.438 218.511 442.36 204.673 440.251 187.458C440.192 187.03 439.688 186.777 439.289 186.98ZM89.5726 215.345C90.3644 217.135 91.2154 218.888 92.1256 220.605C65.9222 235.574 29.1517 233.995 23.5721 233.654C23.1799 233.632 22.8543 233.944 22.8617 234.299C23.2983 252.383 40.9991 257.346 56.6278 255.231C69.9774 253.427 88.6402 244.587 101.834 234.589C103.159 236.052 104.565 237.429 106.008 238.748C93.391 259.331 63.7836 267.78 54.1341 268.548C53.6679 268.591 53.3941 269.069 53.6161 269.453C59.9504 280.357 74.2324 283.98 89.839 276.532C99.1186 272.09 110.655 260.462 118.581 247.406C120.401 248.297 122.295 249.05 124.227 249.717C119.313 274.308 94.76 289.313 90.468 291.769C90.135 291.957 90.0536 292.399 90.3052 292.682C97.609 300.862 114.459 301.028 124.774 289.197C131.109 281.915 135.978 268.388 138.709 252.057C146.301 252.057 163.639 255.303 169.433 270.583C169.685 271.228 170.714 271.062 170.714 270.388V228.532C170.714 228.104 170.262 227.822 169.833 227.959C160.302 231.096 150.378 231.48 143.511 230.155C129.977 227.771 119.742 216.78 119.742 203.564C119.742 195.964 123.139 189.11 128.585 184.19C129.747 183.154 129.592 181.401 128.245 180.582C127.601 180.198 126.965 179.807 126.484 179.503C79.2126 149.594 36.1521 80.3288 31.5123 72.7212C31.2977 72.3662 30.7797 72.2937 30.4615 72.569C15.9353 85.2991 14.5219 110.245 29.8103 129.8C39.9261 142.74 61.164 156.89 82.9126 169.171C82.6092 171.453 82.3946 173.75 82.2836 176.076C37.5285 166.512 9.1199 135.777 4.5541 130.561C4.2507 130.206 3.6439 130.278 3.4367 130.684C-4.79949 146.776 2.34891 168.381 18.6807 177.438C33.0219 185.379 55.5253 190.052 83.2086 193.348C83.512 195.341 83.8672 197.333 84.3038 199.311C42.7529 204.905 10.2965 189.798 4.7169 186.987C4.3025 186.777 3.7993 187.038 3.7475 187.472C1.64591 204.687 12.5609 218.511 31.2089 221.576C49.9679 224.663 89.5726 215.345 89.5726 215.345ZM347.137 344.565L332.707 333.263C326.95 336.675 322.717 342.095 321.074 348.449C312.394 349.659 288.729 344.428 291.03 340.957C316.967 304.644 297.128 283.024 273.285 284.226V308.614C273.285 316.446 266.418 322.793 257.959 322.793H241.494C229.684 322.793 221.995 334.61 221.995 334.61C221.995 334.61 214.307 322.793 202.497 322.793H186.032C177.566 322.793 170.714 316.446 170.714 308.614V284.226C146.871 283.024 127.017 304.644 152.961 340.957C155.24 344.391 130.916 349.891 119.506 348.5C116.501 345.399 112.165 343.442 107.31 343.442C105.172 343.442 103.137 343.834 101.265 344.522C101.265 344.522 56.4281 302.267 55.6067 301.854L55.9767 300.999C58.5296 296.246 54.6225 291.066 52.1509 291.428C55.0221 288.001 55.1553 272.996 39.2305 269.526C39.6967 272.54 39.9335 278.691 39.9335 278.691C39.9335 278.691 27.6421 272.076 21.4705 277.785C16.0463 284.176 23.5721 295.768 23.5721 295.768C23.5721 295.768 17.2821 295.92 14.1815 295.659C18.7399 311.005 34.0283 309.918 37.3361 306.89C37.1215 309.331 42.6493 312.809 47.3335 310.02L49.3907 309.027C49.7533 309.513 93.4206 350.579 93.4206 350.579C91.4152 353.542 90.4606 357.179 91.1192 361.056C92.1552 367.113 97.2242 372.134 103.699 373.438C108.272 374.351 112.572 373.467 116.02 371.46L127.579 382.14C128.608 383.067 129.999 383.647 131.553 383.538C134.38 383.349 136.496 381.067 136.281 378.452C136.193 377.271 135.586 376.256 134.75 375.488C134.565 375.285 122.976 364.577 122.976 364.577C132.537 357.904 150.349 353.202 165.134 353.202C167.731 353.202 168.952 351.014 168.057 348.869C161.36 332.835 175.76 321.221 190.657 330.676C197.154 334.799 203.755 342.921 208.727 356.469C184.285 362.36 153.597 378.589 147.389 396.304C144.999 403.144 152.894 412.468 162.485 414.345C162.847 414.425 163.195 414.186 163.262 413.845C168.272 387.4 196.843 367.692 211.709 364.345C212.457 366.337 212.213 365.693 212.96 367.678C196.769 375.3 181.066 391.377 176.582 410.49C174.525 419.243 184.33 427.133 192.425 429.292C192.832 429.401 193.232 429.118 193.254 428.727C194.793 404.556 205.516 384.031 215.121 374.691C215.38 376.488 215.58 378.328 215.713 380.191C215.713 380.191 205.878 407.469 205.878 427.372C205.878 436.632 219.701 443.094 221.744 444C224.297 443.094 238.113 436.632 238.113 427.372C238.113 407.469 228.278 380.191 228.278 380.191C228.419 378.328 228.611 376.488 228.877 374.691C238.475 384.031 249.205 404.549 250.737 428.72C250.759 429.111 251.166 429.401 251.566 429.292C259.669 427.133 269.466 419.243 267.417 410.49C262.925 391.377 247.229 375.3 231.038 367.678C231.778 365.693 231.534 366.337 232.281 364.345C247.155 367.692 275.719 387.4 280.729 413.845C280.796 414.186 281.151 414.425 281.506 414.345C291.089 412.468 299 403.144 296.595 396.304C290.401 378.589 259.706 362.36 235.264 356.469C240.244 342.921 246.845 334.799 253.342 330.676C268.231 321.221 282.631 332.835 275.934 348.869C275.039 351.014 276.252 353.202 278.857 353.202C295.581 353.202 316.183 359.215 324.337 367.279C329.547 375.061 339.174 380.038 350.038 378.973C362.381 377.771 372.445 368.54 373.836 357.129C375.05 347.13 369.855 338.153 361.574 333.263L347.137 344.565ZM240.777 271.728C245.92 269.83 253.978 271.366 253.704 278.756C253.638 280.43 255.998 280.43 256.169 278.72C257.708 267.656 250.197 264.468 242.338 265.765C241.361 261.962 240.562 258.636 239.652 255.339C238.927 252.673 238.66 247.667 241.761 247.667C243.433 247.667 242.76 252.325 242.604 254.332C242.464 256.093 243.1 257.158 244.536 257.209C245.431 257.245 246.549 256.107 247.215 255.354C251.714 250.289 252.757 242.45 247.488 238.668C243.078 235.494 232.037 237.856 229.003 242.377C228.544 240.675 226.354 237.864 225.303 236.639C224.282 235.444 224.016 234.625 225.429 233.574C226.095 233.067 228.108 231.075 228.108 229.017C228.108 227.8 227.161 225.554 224.149 225.554C221.773 225.554 219.132 227.191 219.132 230.843C219.132 231.654 219.331 232.524 219.857 233.458C218.355 233.212 214.277 233.314 212.183 233.828L241.139 312.925C249.427 308.853 255.503 302.405 255.503 295.486C255.503 289.588 246.778 291.544 242.538 296.145C241.176 288.668 239.963 281.763 238.638 274.88C238.275 272.982 239.245 272.301 240.777 271.728ZM199.833 217.997L205.915 234.821C200.706 236.052 192.329 239.834 192.329 244.841C192.329 251.507 204.176 255.846 211.029 255.325C210.688 256.846 211.081 258.201 212.146 259.44C209.66 259.44 204.968 260.592 203.429 262.244C199.796 258.875 194.112 257.651 191.411 259.701C188.696 261.766 188.614 265.265 191.448 269.221C193.424 271.96 194.164 274.663 191.944 277.836C200.203 277.836 197.161 267.149 200.395 267.149C199.973 269.221 200.232 271.62 201.172 274.279C201.794 276.046 201.794 277.3 200.728 279.003C198.064 283.241 193.92 292.979 194.482 301.782C191.774 301.767 190.398 301.108 191.352 297.427C191.707 296.058 190.856 295.08 189.732 296.768C188.488 298.63 187.889 301.811 187.889 303.173C187.889 311.012 197.272 312.592 200.854 310.933C211.214 320.912 231.564 318.25 238.379 314.903L202.548 217.041C201.816 215.193 199.189 216.077 199.833 217.997ZM198.589 298.608C197.849 294.58 203.481 287.378 210.644 280.43C209.12 284.958 210.067 292.761 213.056 295.449C207.862 295.449 201.69 296.42 198.589 298.608Z" fill="#FDFCFF" fill-opacity="0.2"/>
</svg>