<svg width="30" height="30" viewBox="0 0 30 30" fill="none" xmlns="http://www.w3.org/2000/svg">
<path d="M2.33333 0.75H27.6667C28.0866 0.75 28.4893 0.916815 28.7863 1.21375C29.0832 1.51068 29.25 1.91341 29.25 2.33333V27.6667C29.25 28.0866 29.0832 28.4893 28.7863 28.7863C28.4893 29.0832 28.0866 29.25 27.6667 29.25H2.33333C1.91341 29.25 1.51068 29.0832 1.21375 28.7863C0.916815 28.4893 0.75 28.0866 0.75 27.6667V2.33333C0.75 1.91341 0.916815 1.51068 1.21375 1.21375C1.51068 0.916815 1.91341 0.75 2.33333 0.75ZM3.91667 3.91667V26.0833H26.0833V3.91667H3.91667ZM13.4214 21.3333L6.70333 14.6153L8.94217 12.3764L13.4214 16.8557L22.3768 7.89875L24.6172 10.1376L13.4214 21.3333Z" fill="#9B2D30"/>
</svg>