<svg width="20" height="26" viewBox="0 0 20 26" fill="none" xmlns="http://www.w3.org/2000/svg">
<path d="M2.5 3V23H17.5V3H2.5ZM1.25 0.5H18.75C19.0815 0.5 19.3995 0.631696 19.6339 0.866116C19.8683 1.10054 20 1.41848 20 1.75V24.25C20 24.5815 19.8683 24.8995 19.6339 25.1339C19.3995 25.3683 19.0815 25.5 18.75 25.5H1.25C0.918479 25.5 0.600537 25.3683 0.366117 25.1339C0.131696 24.8995 0 24.5815 0 24.25V1.75C0 1.41848 0.131696 1.10054 0.366117 0.866116C0.600537 0.631696 0.918479 0.5 1.25 0.5ZM10 19.25C10.3315 19.25 10.6495 19.3817 10.8839 19.6161C11.1183 19.8505 11.25 20.1685 11.25 20.5C11.25 20.8315 11.1183 21.1495 10.8839 21.3839C10.6495 21.6183 10.3315 21.75 10 21.75C9.66848 21.75 9.35054 21.6183 9.11612 21.3839C8.8817 21.1495 8.75 20.8315 8.75 20.5C8.75 20.1685 8.8817 19.8505 9.11612 19.6161C9.35054 19.3817 9.66848 19.25 10 19.25Z" fill="#9B2D30"/>
</svg>