<svg width="24" height="28" viewBox="0 0 24 28" fill="none" xmlns="http://www.w3.org/2000/svg">
<path d="M12 27.6599L4.04501 19.7049C2.47168 18.1316 1.40023 16.127 0.966161 13.9447C0.532088 11.7624 0.754884 9.50044 1.60637 7.44478C2.45786 5.38912 3.8998 3.63212 5.74985 2.39596C7.5999 1.1598 9.77497 0.5 12 0.5C14.225 0.5 16.4001 1.1598 18.2502 2.39596C20.1002 3.63212 21.5421 5.38912 22.3936 7.44478C23.2451 9.50044 23.4679 11.7624 23.0338 13.9447C22.5998 16.127 21.5283 18.1316 19.955 19.7049L12 27.6599ZM18.1875 17.9374C19.4111 16.7137 20.2444 15.1546 20.5819 13.4572C20.9195 11.7599 20.7462 10.0006 20.0839 8.40185C19.4216 6.80305 18.3001 5.43654 16.8612 4.47511C15.4222 3.51369 13.7306 3.00053 12 3.00053C10.2695 3.00053 8.57777 3.51369 7.13886 4.47511C5.69995 5.43654 4.57844 6.80305 3.91614 8.40185C3.25385 10.0006 3.08052 11.7599 3.41807 13.4572C3.75562 15.1546 4.58888 16.7137 5.8125 17.9374L12 24.1249L18.1875 17.9374ZM12 14.2499C11.337 14.2499 10.7011 13.9865 10.2322 13.5177C9.7634 13.0488 9.5 12.4129 9.5 11.7499C9.5 11.0869 9.7634 10.451 10.2322 9.98214C10.7011 9.5133 11.337 9.2499 12 9.2499C12.663 9.2499 13.2989 9.5133 13.7678 9.98214C14.2366 10.451 14.5 11.0869 14.5 11.7499C14.5 12.4129 14.2366 13.0488 13.7678 13.5177C13.2989 13.9865 12.663 14.2499 12 14.2499Z" fill="#9B2D30"/>
</svg>