<svg width="26" height="24" viewBox="0 0 26 24" fill="none" xmlns="http://www.w3.org/2000/svg">
<path d="M1.75 0.75H24.25C24.5815 0.75 24.8995 0.881696 25.1339 1.11612C25.3683 1.35054 25.5 1.66848 25.5 2V22C25.5 22.3315 25.3683 22.6495 25.1339 22.8839C24.8995 23.1183 24.5815 23.25 24.25 23.25H1.75C1.41848 23.25 1.10054 23.1183 0.866116 22.8839C0.631696 22.6495 0.5 22.3315 0.5 22V2C0.5 1.66848 0.631696 1.35054 0.866116 1.11612C1.10054 0.881696 1.41848 0.75 1.75 0.75ZM23 6.0475L13.09 14.9225L3 6.02V20.75H23V6.0475ZM3.63875 3.25L13.0763 11.5775L22.3775 3.25H3.63875Z" fill="#9B2D30"/>
</svg>