<svg width="26" height="26" viewBox="0 0 26 26" fill="none" xmlns="http://www.w3.org/2000/svg">
<path d="M13 23C15.6522 23 18.1957 21.9464 20.0711 20.0711C21.9464 18.1957 23 15.6522 23 13C23 10.3478 21.9464 7.8043 20.0711 5.92893C18.1957 4.05357 15.6522 3 13 3C10.3478 3 7.8043 4.05357 5.92893 5.92893C4.05357 7.8043 3 10.3478 3 13C3 15.6522 4.05357 18.1957 5.92893 20.0711C7.8043 21.9464 10.3478 23 13 23ZM13 25.5C6.09625 25.5 0.5 19.9037 0.5 13C0.5 6.09625 6.09625 0.5 13 0.5C19.9037 0.5 25.5 6.09625 25.5 13C25.5 19.9037 19.9037 25.5 13 25.5ZM9.1125 14.4625L5.99 13.4887C5.315 13.2825 5.31125 12.8175 6.14125 12.4837L18.3075 7.78375C19.0138 7.49625 19.4137 7.86 19.185 8.77125L17.1138 18.5462C16.9688 19.2425 16.55 19.4088 15.9688 19.0875L12.78 16.7275L11.2938 18.1625C11.1413 18.31 11.0175 18.4363 10.7825 18.4675C10.5487 18.5 10.3563 18.43 10.215 18.0425L9.1275 14.4538L9.1125 14.4637V14.4625Z" fill="white"/>
</svg>
